<?xml version="1.0" encoding="UTF-8"?>
<svg id="Layer_1" data-name="Layer 1" xmlns="http://www.w3.org/2000/svg" version="1.1" viewBox="0 0 659.8 659.8">
  <defs>
    <style>
      .cls-1 {
        fill: #b2b1b1;
        stroke-width: 0px;
      }
    </style>
  </defs>
  <path class="cls-1" d="M566.8,208.3c5-5.5,13.1-16.1,10.7-25.9-2.5-9.9-12.5-13.8-20.5-13.3H199.9c2.9-27.2-12.1-60.9-42.2-58.5-10.4.9-18.7,6.4-23.8,10.9-8.4-14.1-26.5-52.2-14.9-100.4,1.2-4.9-1.8-9.8-6.7-11-4.9-1-9.8,1.9-11,6.7-12.4,51.4,4.7,92.2,15.1,110.8-27.1,2.5-33.8,20.8-34.4,35.3-.5,14.5,7.3,45.1,40.6,57.2,28.5,9.6,48.7-5.8,48.7-5.8l184.4,212.2v201.6h-83.2c-6,0-10.9,4.9-10.9,10.9s4.9,10.9,10.9,10.9h188.3c6,0,10.9-4.9,10.9-10.9s-4.9-10.9-10.9-10.9h-83.2v-201.2l189.2-218.6ZM254.2,276.4h224.6l-112.1,129.4-112.5-129.4h0ZM155.2,185.8c-.3,4.7,1.8,9.6,4.4,13.8-12.7,9.9-31.1,3.2-31.1,3.2-28.6-10.4-28.2-38.1-28.2-39.2.2-6.3,2-10.7,5.5-13.6,5.7-4.8,15.4-4.6,18.6-4.2,3.7.4,7.1-.2,10.3-1.2,3-1,6-3.2,8.3-6.2,2-2.5,8.9-8.5,16-9.6,13.6-2.1,26,20.4,22.8,40.3h-5.1c-10.2-.4-20.8,5.2-21.5,16.7h0ZM180.1,190.9h372.7c-.7,1-1.5,1.9-2.3,2.8l-55.8,64.4H238.4l-56-64.5c-.8-.7-1.6-1.7-2.3-2.7h0Z"/>
</svg>